<svg preserveAspectRatio="none" overflow="visible" style="display: block;" width="28" height="28" viewBox="0 0 28 28" fill="none" xmlns="http://www.w3.org/2000/svg">
<g id="image-up">
<path id="Vector" d="M12.0167 24.5H5.83333C5.21449 24.5 4.621 24.2542 4.18342 23.8166C3.74583 23.379 3.5 22.7855 3.5 22.1667V5.83333C3.5 5.21449 3.74583 4.621 4.18342 4.18342C4.621 3.74583 5.21449 3.5 5.83333 3.5H22.1667C22.7855 3.5 23.379 3.74583 23.8166 4.18342C24.2542 4.621 24.5 5.21449 24.5 5.83333V17.5L20.8833 13.8833C20.4443 13.453 19.8532 13.2134 19.2385 13.2164C18.6237 13.2195 18.0351 13.465 17.6003 13.8997L7 24.5M23.3333 22.75L19.8333 19.25L16.3333 22.75M19.8333 19.25V25.6667M12.8333 10.5C12.8333 11.7887 11.7887 12.8333 10.5 12.8333C9.21134 12.8333 8.16667 11.7887 8.16667 10.5C8.16667 9.21134 9.21134 8.16667 10.5 8.16667C11.7887 8.16667 12.8333 9.21134 12.8333 10.5Z" stroke="#9A7037" stroke-linecap="round"/>
</g>
</svg>
